<?xml version="1.0" standalone="no"?>
<!DOCTYPE svg PUBLIC "-//W3C//DTD SVG 20010904//EN"
 "http://www.w3.org/TR/2001/REC-SVG-20010904/DTD/svg10.dtd">
<svg version="1.0" xmlns="http://www.w3.org/2000/svg"
 width="1024.000000pt" height="1024.000000pt" viewBox="0 0 1024.000000 1024.000000"
 preserveAspectRatio="xMidYMid meet">
<metadata>
Created by potrace 1.14, written by Peter Selinger 2001-2017
</metadata>
<g transform="translate(0.000000,1024.000000) scale(0.100000,-0.100000)"
fill="#000000" stroke="none">
<path d="M4365 8857 c-11 -23 -22 -44 -26 -47 -3 -3 -17 -25 -31 -50 -14 -25
-37 -65 -52 -90 -15 -25 -29 -53 -33 -62 -3 -10 -9 -18 -14 -18 -5 0 -9 -4 -9
-8 0 -8 -55 -107 -111 -197 -13 -22 -24 -42 -24 -45 0 -3 -10 -19 -23 -37 -12
-17 -22 -33 -22 -36 0 -6 -118 -209 -211 -364 -27 -45 -49 -86 -49 -92 0 -6
-3 -11 -7 -11 -5 0 -13 -10 -19 -23 -24 -51 -68 -122 -78 -129 -6 -4 -7 -8 -3
-8 5 0 -1 -13 -12 -29 -12 -16 -21 -34 -21 -39 0 -6 -4 -12 -8 -14 -4 -1 -36
-52 -71 -113 -34 -60 -66 -117 -72 -125 -43 -69 -129 -223 -129 -231 0 -5 -4
-9 -8 -9 -4 0 -13 -12 -20 -27 -23 -51 -37 -73 -44 -73 -5 0 -8 -4 -8 -10 0
-5 -20 -44 -45 -86 -25 -41 -45 -78 -45 -81 0 -3 -9 -17 -19 -31 -26 -37 -81
-133 -88 -154 -3 -10 -9 -18 -14 -18 -5 0 -9 -4 -9 -10 0 -5 -18 -39 -40 -75
-22 -36 -40 -68 -40 -72 0 -3 -6 -14 -14 -22 -7 -9 -27 -41 -43 -71 -16 -30
-89 -155 -161 -278 -73 -123 -132 -226 -132 -229 0 -3 -8 -17 -19 -31 -10 -15
-30 -48 -43 -73 -36 -63 -52 -91 -61 -103 -21 -30 -104 -176 -99 -176 3 0 -2
-8 -10 -17 -8 -10 -36 -56 -63 -103 -26 -47 -52 -86 -57 -88 -4 -2 -8 -8 -8
-12 0 -10 -121 -222 -198 -347 -17 -30 -32 -55 -32 -57 0 -2 -18 -34 -40 -70
-22 -36 -40 -70 -40 -76 0 -5 -4 -10 -8 -10 -4 0 -15 -15 -23 -32 -9 -18 -40
-73 -69 -123 -29 -49 -60 -103 -69 -120 -9 -16 -19 -32 -22 -35 -4 -3 -17 -25
-29 -50 -12 -25 -25 -47 -29 -50 -3 -3 -13 -18 -21 -35 -8 -16 -17 -32 -20
-35 -8 -8 -28 -43 -47 -80 -9 -19 -28 -50 -41 -67 -13 -18 -21 -33 -17 -33 5
0 1 -8 -7 -17 -13 -15 -52 -80 -145 -243 -17 -29 -29 -51 -141 -243 -46 -78
-87 -149 -93 -157 -8 -14 -149 -255 -190 -328 -11 -17 -27 -47 -38 -65 -10
-17 -33 -57 -51 -87 -18 -30 -40 -68 -50 -85 -27 -48 -83 -143 -113 -193 -15
-26 -31 -55 -34 -64 -3 -10 -9 -18 -14 -18 -5 0 -9 -4 -9 -9 0 -10 -82 -152
-137 -238 -18 -29 -31 -53 -29 -53 4 0 -84 -151 -101 -176 -8 -10 -17 -25 -53
-88 -87 -154 -145 -252 -150 -256 -3 -3 -17 -25 -29 -50 -12 -25 -45 -83 -73
-130 -28 -47 -59 -100 -69 -117 l-19 -33 5115 0 c3246 0 5115 3 5115 10 0 5
-13 32 -30 60 -16 28 -30 55 -30 60 0 4 -4 10 -8 12 -5 2 -41 62 -82 133 -41
72 -76 132 -79 135 -3 3 -13 19 -21 35 -8 17 -29 53 -47 82 -18 29 -33 55 -33
59 0 4 -6 15 -14 23 -7 9 -27 41 -43 71 -39 71 -133 232 -143 245 -4 6 -20 33
-35 60 -16 28 -33 59 -39 70 -11 20 -49 84 -211 360 -45 77 -84 145 -86 150
-2 6 -20 35 -39 65 -19 30 -35 57 -35 60 0 3 -8 16 -17 30 -14 22 -50 83 -108
185 -9 17 -31 54 -49 83 -17 29 -31 57 -31 62 0 4 -4 10 -8 12 -5 2 -24 30
-42 63 -54 97 -60 109 -80 140 -11 17 -23 37 -27 45 -4 7 -24 42 -45 77 -21
34 -38 67 -38 73 0 5 -4 10 -10 10 -5 0 -10 4 -10 10 0 5 -14 33 -31 62 -30
49 -46 78 -81 139 -7 13 -15 26 -18 29 -3 3 -16 25 -29 50 -13 25 -36 63 -50
85 -14 22 -33 54 -41 70 -8 17 -36 65 -62 107 -27 43 -48 82 -48 88 0 5 -4 10
-10 10 -5 0 -10 4 -10 9 0 8 -31 64 -123 221 -11 19 -34 58 -49 85 -16 28 -42
71 -58 97 -16 26 -44 73 -61 105 -18 32 -58 101 -89 153 -31 52 -59 102 -63
110 -4 8 -13 24 -19 35 -34 53 -81 132 -154 258 -43 76 -89 155 -102 175 -12
20 -27 46 -32 57 -6 11 -16 29 -22 40 -32 49 -55 91 -54 96 1 4 -6 15 -15 25
-9 11 -40 62 -69 114 -29 52 -61 106 -70 120 -10 14 -28 45 -42 70 -14 25 -69
119 -122 210 -53 91 -101 172 -106 180 -5 8 -25 43 -45 77 -20 34 -36 65 -35
68 0 3 -4 11 -10 18 -6 6 -25 37 -44 68 -77 131 -223 383 -241 417 -11 20 -23
39 -27 40 -5 2 -8 8 -8 14 0 5 -13 29 -30 53 -16 24 -30 47 -30 52 0 4 -23 44
-50 88 -28 44 -50 85 -50 92 0 23 -16 14 -33 -19 -15 -28 -85 -148 -117 -198
-5 -8 -21 -37 -36 -65 -14 -27 -32 -57 -40 -66 -8 -8 -14 -18 -14 -22 0 -5
-51 -94 -85 -148 -5 -9 -25 -43 -43 -75 -56 -99 -67 -119 -72 -124 -3 -3 -11
-16 -18 -29 -30 -52 -53 -93 -71 -123 -10 -18 -41 -71 -68 -118 -58 -99 -93
-158 -111 -185 -7 -11 -15 -28 -18 -37 -4 -10 -10 -18 -14 -18 -9 0 -100 154
-100 170 0 5 -4 10 -8 10 -4 0 -20 24 -36 53 -15 28 -42 77 -60 107 -42 70
-172 293 -199 340 -11 19 -27 46 -35 60 -7 14 -24 42 -35 62 -12 20 -50 85
-85 145 -34 59 -67 115 -72 123 -5 8 -30 51 -56 95 -67 115 -104 178 -164 280
-53 91 -73 125 -111 193 -12 20 -29 49 -38 64 -23 37 -80 137 -104 178 -11 19
-28 47 -39 63 -11 15 -16 27 -12 27 4 0 0 8 -8 18 -8 9 -25 35 -38 57 -12 22
-31 54 -40 70 -40 68 -118 202 -131 225 -8 14 -16 27 -20 30 -3 3 -13 21 -22
40 -9 19 -25 45 -34 57 l-18 22 -20 -42z"/>
</g>
</svg>
